<?xml version="1.0" encoding="UTF-8" standalone="no"?><!DOCTYPE svg PUBLIC "-//W3C//DTD SVG 1.1//EN" "http://www.w3.org/Graphics/SVG/1.1/DTD/svg11.dtd"><svg width="100%" height="100%" viewBox="0 0 256 256" version="1.1" xmlns="http://www.w3.org/2000/svg" xmlns:xlink="http://www.w3.org/1999/xlink" xml:space="preserve" xmlns:serif="http://www.serif.com/" style="fill-rule:evenodd;clip-rule:evenodd;stroke-linejoin:round;stroke-miterlimit:2;"><path d="M10.706,149.711l69.294,58.289l0,-64l-69.294,5.711Z" style="fill:#ebebeb;"/><path d="M74.804,191.967l-0.098,0.008l0.928,0.78c0.792,0.729 1.617,1.423 2.472,2.079l57.68,48.52c1.487,1.251 3.564,1.526 5.326,0.706c1.762,-0.82 2.888,-2.587 2.888,-4.53c-0,-0 -0,-18.329 -0,-29.279c0,-4.411 3.576,-7.987 7.988,-7.987c8.276,-0 20.012,-0 20.012,-0c19.869,-0 36,-16.131 36,-36l0,-88c0,-19.869 -16.131,-36 -36,-36l-72,-0c-19.869,-0 -36,16.131 -36,36l0,88c0,10.063 4.138,19.168 10.804,25.703Z" style="fill:#ec8e54;"/><path d="M42.804,165.703l-0.098,0.008l0.928,0.781c0.792,0.729 1.617,1.422 2.472,2.079l57.68,48.519c1.487,1.251 3.564,1.527 5.326,0.707c1.762,-0.821 2.888,-2.587 2.888,-4.531c-0,0 -0,-18.329 -0,-29.278c0,-4.412 3.576,-7.988 7.988,-7.988c8.276,-0 20.012,-0 20.012,-0c19.869,-0 36,-16.131 36,-36l0,-88c0,-19.869 -16.131,-36 -36,-36l-72,-0c-19.869,-0 -36,16.131 -36,36l0,88c0,10.064 4.138,19.168 10.804,25.703Z" style="fill:#2ca965;"/><path d="M105.776,218.111c1.094,0.277 2.273,0.181 3.336,-0.314c1.762,-0.821 2.888,-2.587 2.888,-4.531c-0,0 -0,-18.329 -0,-29.278c0,-4.412 3.576,-7.988 7.988,-7.988c8.276,-0 20.012,-0 20.012,-0c19.869,-0 36,-16.131 36,-36l0,-88c0,-3.338 -0.455,-6.57 -1.307,-9.637c-0.889,-0.066 -1.787,-0.099 -2.693,-0.099l-72,-0c-19.869,-0 -36,16.131 -36,36l0,88c0,10.063 4.138,19.168 10.804,25.703l-0.098,0.008l0.928,0.78c0.792,0.729 1.617,1.423 2.472,2.079l27.67,23.277Z" style="fill:#33c575;"/></svg>