<?xml version="1.0" encoding="UTF-8" standalone="no"?><!DOCTYPE svg PUBLIC "-//W3C//DTD SVG 1.1//EN" "http://www.w3.org/Graphics/SVG/1.1/DTD/svg11.dtd"><svg width="100%" height="100%" viewBox="0 0 256 256" version="1.1" xmlns="http://www.w3.org/2000/svg" xmlns:xlink="http://www.w3.org/1999/xlink" xml:space="preserve" xmlns:serif="http://www.serif.com/" style="fill-rule:evenodd;clip-rule:evenodd;stroke-linejoin:round;stroke-miterlimit:2;"><path d="M63.989,32c-8.831,-0 -15.989,7.158 -15.989,15.989c-0,43.576 0,163.492 -0,198.375c0,1.614 0.972,3.07 2.464,3.687c1.491,0.618 3.208,0.277 4.35,-0.865c13.247,-13.247 41.186,-41.186 41.186,-41.186l64.011,-0c8.831,0 15.989,-7.158 15.989,-15.989l-0,-144.022c-0,-4.241 -1.685,-8.308 -4.683,-11.306c-2.998,-2.998 -7.065,-4.683 -11.306,-4.683c-24.592,-0 -71.43,-0 -96.022,-0Z" style="fill:#2c9b63;"/><path d="M95.989,0c-8.831,-0 -15.989,7.158 -15.989,15.989c0,43.576 0,163.492 0,198.375c0,1.614 0.972,3.07 2.464,3.687c1.491,0.618 3.208,0.277 4.35,-0.865c13.247,-13.247 41.186,-41.186 41.186,-41.186l64.011,0c8.831,0 15.989,-7.158 15.989,-15.989l0,-144.022c-0,-4.241 -1.685,-8.308 -4.683,-11.306c-2.998,-2.998 -7.065,-4.683 -11.306,-4.683c-24.592,0 -71.43,0 -96.022,0Z" style="fill:#ec8e54;"/><path d="M80,32l0,182.364c0,1.614 0.972,3.07 2.464,3.687c1.491,0.618 3.208,0.277 4.35,-0.865c13.247,-13.247 41.186,-41.186 41.186,-41.186l48,0l-0,-128.011c-0,-4.241 -1.685,-8.308 -4.683,-11.306c-2.998,-2.998 -7.065,-4.683 -11.306,-4.683l-80.011,0Z" style="fill:#247e51;"/></svg>