<?xml version="1.0" encoding="UTF-8" standalone="no"?><!DOCTYPE svg PUBLIC "-//W3C//DTD SVG 1.1//EN" "http://www.w3.org/Graphics/SVG/1.1/DTD/svg11.dtd"><svg width="100%" height="100%" viewBox="0 0 256 256" version="1.1" xmlns="http://www.w3.org/2000/svg" xmlns:xlink="http://www.w3.org/1999/xlink" xml:space="preserve" xmlns:serif="http://www.serif.com/" style="fill-rule:evenodd;clip-rule:evenodd;stroke-linejoin:round;stroke-miterlimit:2;"><path d="M128,205.212l0,50.788l-88.484,-70.108l0.173,-0.18c-24.163,-19.048 -39.689,-48.581 -39.689,-81.712c0,-57.399 46.601,-104 104,-104c57.399,0 104,46.601 104,104c0,49.138 -34.153,90.363 -80,101.212Zm-16,-85.212c0,-4.415 -3.585,-8 -8,-8l-48,0c-4.415,0 -8,3.585 -8,8c0,4.415 3.585,8 8,8l48,0c4.415,0 8,-3.585 8,-8Zm32,-48c0,-4.415 -3.585,-8 -8,-8l-80,0c-4.415,0 -8,3.585 -8,8c0,4.415 3.585,8 8,8l80,0c4.415,0 8,-3.585 8,-8Z" style="fill:#38c58b;"/><path d="M16,160c0,0 22.082,40.457 112,96c-0.066,-63.799 0,-96 0,-96l-112,0Z" style="fill:#38c58b;"/></svg>