<?xml version="1.0" encoding="UTF-8" standalone="no"?><!DOCTYPE svg PUBLIC "-//W3C//DTD SVG 1.1//EN" "http://www.w3.org/Graphics/SVG/1.1/DTD/svg11.dtd"><svg width="100%" height="100%" viewBox="0 0 256 256" version="1.1" xmlns="http://www.w3.org/2000/svg" xmlns:xlink="http://www.w3.org/1999/xlink" xml:space="preserve" xmlns:serif="http://www.serif.com/" style="fill-rule:evenodd;clip-rule:evenodd;stroke-linejoin:round;stroke-miterlimit:2;"><path d="M75.372,19.712c0.013,-9.836 7.99,-17.803 17.826,-17.803l96.036,0c9.771,0 17.721,7.867 17.824,17.638c0.328,31.174 1.006,95.624 1.331,126.494c0.101,9.603 -7.424,17.559 -17.017,17.994c-24.551,1.114 -66.712,3.026 -66.712,3.026c0,-0 -28.394,35.208 -41.307,51.221c-0.972,1.205 -2.59,1.678 -4.058,1.186c-1.468,-0.491 -2.474,-1.844 -2.524,-3.391c-0.543,-16.818 -1.582,-49.016 -1.582,-49.016c0,-0 0.13,-104.662 0.183,-147.349Z" style="fill:#ec8e54;"/><path d="M43.42,47.958c-0.112,-5.308 1.898,-10.441 5.585,-14.261c3.687,-3.819 8.746,-6.01 14.055,-6.085c24.362,-0.345 65.183,-0.923 89.348,-1.265c10.888,-0.154 19.883,8.461 20.199,19.346c0.953,32.83 2.859,98.509 3.81,131.298c0.315,10.86 -8.128,19.971 -18.98,20.482c-23.932,1.126 -61.318,2.885 -61.318,2.885c0,0 -26.255,32.557 -39.753,49.295c-1.213,1.504 -3.233,2.095 -5.065,1.481c-1.832,-0.614 -3.089,-2.302 -3.151,-4.233c-0.558,-17.306 -1.501,-46.543 -1.501,-46.543c-0,0 -2.266,-106.94 -3.229,-152.4Z" style="fill:#2c9b63;"/><path d="M175.956,164.275l-52.485,1.597l-26.805,33.238l-1.736,0.059c0,0 -7.056,8.75 -12.589,15.611c-1.01,1.252 -2.691,1.743 -4.215,1.233c-1.524,-0.511 -2.57,-1.916 -2.622,-3.523c-0.53,-16.425 -1.504,-46.618 -1.504,-46.618l-0.609,-135.512c0,0 52.35,-1.938 80.789,-2.991c4.729,-0.175 9.333,1.546 12.787,4.782c3.453,3.235 5.471,7.716 5.605,12.447c1.053,37.245 3.384,119.677 3.384,119.677Z" style="fill:#247e51;"/></svg>