<?xml version="1.0" encoding="UTF-8" standalone="no"?><!DOCTYPE svg PUBLIC "-//W3C//DTD SVG 1.1//EN" "http://www.w3.org/Graphics/SVG/1.1/DTD/svg11.dtd"><svg width="100%" height="100%" viewBox="0 0 256 256" version="1.1" xmlns="http://www.w3.org/2000/svg" xmlns:xlink="http://www.w3.org/1999/xlink" xml:space="preserve" xmlns:serif="http://www.serif.com/" style="fill-rule:evenodd;clip-rule:evenodd;stroke-linejoin:round;stroke-miterlimit:2;"><path d="M68.522,182.119c-24.725,-17.735 -40.847,-46.725 -40.847,-79.451c-0,-53.931 43.785,-97.717 97.716,-97.717c53.932,0 97.717,43.786 97.717,97.717c0,43.835 -28.926,80.968 -68.713,93.333l-0,38.196l-69.683,-38.548l-0,-1.893l-16.19,-11.637l-0,-0Zm4.126,5.827l0,1.029l-1.544,-0.854l1.544,-0.175Zm52.348,-80.735c0,-1.588 -1.289,-2.877 -2.877,-2.877l-46.029,0c-1.587,0 -2.877,1.289 -2.877,2.877l0,5.754c0,1.588 1.29,2.877 2.877,2.877l46.029,-0c1.588,-0 2.877,-1.289 2.877,-2.877l0,-5.754Zm42.46,-41.234c0,-1.588 -1.289,-2.877 -2.877,-2.877l-92.324,0c-1.588,0 -2.877,1.289 -2.877,2.877l-0,5.753c-0,1.588 1.289,2.877 2.877,2.877l92.324,0c1.588,0 2.877,-1.289 2.877,-2.877l0,-5.753Z" style="fill:url(#_Linear1);"/><path d="M159.546,233.85l-26.871,-16.704l34.134,-110.752l78.07,5.81l0.364,55.558l-53.742,73.713l-31.955,-7.625Z" style="fill:none;"/><defs><linearGradient id="_Linear1" x1="0" y1="0" x2="1" y2="0" gradientUnits="userSpaceOnUse" gradientTransform="matrix(-121.709,-262.408,262.408,-121.709,182.788,243.147)"><stop offset="0" style="stop-color:#36db74;stop-opacity:1"/><stop offset="1" style="stop-color:#05a272;stop-opacity:1"/></linearGradient></defs></svg>